<svg xmlns="http://www.w3.org/2000/svg" width="20" height="20" viewBox="0 0 20 20">
    <defs>
        <style>
            .cls-1,.cls-2{fill:#aa2828}.cls-2{stroke:#aa2828;stroke-width:.5px}.cls-3{fill:none}
        </style>
    </defs>
    <g id="Warning" transform="translate(-560 -207)">
        <g id="warning-circle" transform="translate(562.567 209.567)">
            <path id="Path" d="M71.7 64a7.7 7.7 0 1 0 7.7 7.7 7.7 7.7 0 0 0-7.7-7.7zm0 14.1a6.4 6.4 0 1 1 6.4-6.4 6.4 6.4 0 0 1-6.4 6.4z" class="cls-1" transform="translate(-64 -64)"/>
            <path id="Path-2" d="M464 640.825a.825.825 0 1 0 .825-.825.825.825 0 0 0-.825.825z" class="cls-2" data-name="Path" transform="translate(-457.123 -630.097)"/>
            <path id="Path-3" d="M480.138 292.951h.825a.138.138 0 0 0 .137-.138v-4.676a.138.138 0 0 0-.137-.138h-.825a.138.138 0 0 0-.138.138v4.676a.138.138 0 0 0 .138.138z" class="cls-2" data-name="Path" transform="translate(-472.848 -284.149)"/>
        </g>
        <path id="Rectangle" d="M0 0h20v20H0z" class="cls-3" transform="translate(560 207)"/>
    </g>
</svg>
