<svg xmlns="http://www.w3.org/2000/svg" width="20" height="20" viewBox="0 0 20 20">
    <defs>
        <style>
            .cls-1{fill:none}.cls-2{fill:#969696}
        </style>
    </defs>
    <g id="Hide" transform="translate(-322 -147)">
        <path id="Rectangle" d="M0 0h20v20H0z" class="cls-1" transform="translate(322 147)"/>
        <g id="Hide-2" data-name="Hide" transform="translate(324.467 150.289)">
            <path id="Path" d="M90.73 115.873a10.286 10.286 0 0 0-2.219-3.157l-.861.862a8.97 8.97 0 0 1 1.937 2.731c-1.414 2.925-3.419 4.313-6.159 4.313a6.514 6.514 0 0 1-2.4-.426l-.929.929a7.554 7.554 0 0 0 3.325.72q4.894 0 7.3-5.1a1.022 1.022 0 0 0 .006-.872zm-1.086-5.639l-.72-.72a.136.136 0 0 0-.192 0l-1.983 1.986a7.519 7.519 0 0 0-3.324-.721q-4.894 0-7.3 5.1a1.024 1.024 0 0 0 0 .874 10.316 10.316 0 0 0 2.219 3.159l-1.709 1.706a.136.136 0 0 0 0 .192l.72.72a.136.136 0 0 0 .192 0l12.1-12.1a.134.134 0 0 0-.003-.196zm-8.138 6.5a1.9 1.9 0 0 1 2.283-2.283zm3.132-3.132a2.99 2.99 0 0 0-3.981 3.981l-1.457 1.458a8.971 8.971 0 0 1-1.937-2.731c1.416-2.925 3.42-4.313 6.158-4.313a6.514 6.514 0 0 1 2.4.426z" class="cls-2" transform="translate(-76.025 -109.475)"/>
            <path id="Path-2" d="M439.287 445.089a1.8 1.8 0 0 1-.319-.027l-.867.867a2.99 2.99 0 0 0 3.93-3.93l-.867.867a1.974 1.974 0 0 1 .027.319 1.9 1.9 0 0 1-1.904 1.904z" class="cls-2" data-name="Path" transform="translate(-431.954 -436.355)"/>
        </g>
    </g>
</svg>
